<?xml version="1.0" encoding="UTF-8" standalone="no"?>
<!-- Generator: Adobe Illustrator 14.0.0, SVG Export Plug-In . SVG Version: 6.00 Build 43363)  -->

<svg
   version="1.1"
   id="Layer_1"
   x="0px"
   y="0px"
   width="1440px"
   height="2160px"
   viewBox="0 0 1440 2160"
   enable-background="new 0 0 1440 2160"
   xml:space="preserve"
   sodipodi:docname="Kanji-Tree.svg"
   inkscape:version="1.2 (1:1.2.1+202207142221+cd75a1ee6d)"
   xmlns:inkscape="http://www.inkscape.org/namespaces/inkscape"
   xmlns:sodipodi="http://sodipodi.sourceforge.net/DTD/sodipodi-0.dtd"
   xmlns="http://www.w3.org/2000/svg"
   xmlns:svg="http://www.w3.org/2000/svg"><defs
   id="defs13" /><sodipodi:namedview
   id="namedview11"
   pagecolor="#ffffff"
   bordercolor="#000000"
   borderopacity="0.25"
   inkscape:showpageshadow="2"
   inkscape:pageopacity="0.0"
   inkscape:pagecheckerboard="0"
   inkscape:deskcolor="#d1d1d1"
   showgrid="false"
   inkscape:zoom="0.40601852"
   inkscape:cx="706.86431"
   inkscape:cy="1081.2315"
   inkscape:window-width="1920"
   inkscape:window-height="1031"
   inkscape:window-x="1920"
   inkscape:window-y="25"
   inkscape:window-maximized="1"
   inkscape:current-layer="Layer_1" />
<g
   id="g8"
   transform="matrix(0.6,0,0,0.6,271.2596,427.60906)">
	<g
   id="g6">
		<path
   fill-rule="evenodd"
   clip-rule="evenodd"
   fill="#ffffff"
   d="m 647.737,1515.687 c -3.578,0 -7.156,0 -10.733,0 -86.903,-123.345 18.038,-337.278 -17.89,-520.196 -90.252,171.395 -194.894,328.365 -393.569,391.043 134.581,-120.97 275.685,-254.527 339.9,-434.094 -66.462,4.879 -170.445,36.362 -211.096,-14.35 80.289,-29.513 184.991,-34.547 268.342,-60.989 -1.899,-72.766 0.754,-142.318 -17.889,-197.316 -6.805,-20.075 -27.333,-35.938 -17.89,-57.4 40.966,-0.547 100.213,6.77 107.337,43.05 2.598,13.232 -7.946,30.077 -10.733,46.638 -8.056,47.867 -9.573,107.733 -3.578,154.265 85.001,-4.072 223.517,-78.95 275.498,3.587 -78.53,34.863 -191.459,35.236 -279.076,60.989 1.353,50.731 45.782,84.238 75.136,118.389 90.759,105.591 190.553,204.528 318.434,265.479 21.908,10.442 50.917,9.697 60.824,39.463 -69.086,10.104 -162.641,24.006 -214.674,-3.587 -22.549,-11.958 -45.254,-49.934 -64.402,-78.927 -58.105,-87.979 -123.384,-190.885 -175.317,-254.716 -13.459,169.051 34.172,378.131 -28.624,498.672 z"
   id="path2" />
		<path
   fill-rule="evenodd"
   clip-rule="evenodd"
   d="m 676.36,1017.016 c 51.934,63.832 117.212,166.737 175.317,254.716 19.148,28.993 41.854,66.969 64.402,78.927 52.033,27.593 145.588,13.691 214.674,3.587 -9.907,-29.766 -38.916,-29.021 -60.824,-39.463 -127.881,-60.951 -227.675,-159.889 -318.434,-265.479 -29.354,-34.151 -73.783,-67.658 -75.136,-118.389 87.617,-25.752 200.546,-26.125 279.076,-60.989 -51.981,-82.537 -190.497,-7.66 -275.498,-3.587 -5.995,-46.532 -4.478,-106.398 3.578,-154.265 2.787,-16.562 13.332,-33.406 10.733,-46.638 -7.124,-36.28 -66.371,-43.597 -107.337,-43.05 -9.443,21.463 11.084,37.326 17.89,57.4 18.644,54.998 15.99,124.55 17.889,197.316 -83.351,26.442 -188.053,31.476 -268.342,60.989 40.651,50.712 144.634,19.229 211.096,14.35 -64.215,179.567 -205.32,313.125 -339.9,434.094 198.675,-62.679 303.317,-219.648 393.569,-391.043 35.927,182.917 -69.014,396.851 17.89,520.196 3.578,0 7.156,0 10.733,0 62.797,-120.542 15.166,-329.622 28.624,-498.672 z"
   id="path4" />
	</g>
</g>
</svg>
